<?xml version="1.0" encoding="UTF-8" standalone="no"?>
<!DOCTYPE svg PUBLIC "-//W3C//DTD SVG 1.1//EN" "http://www.w3.org/Graphics/SVG/1.1/DTD/svg11.dtd">
<svg width="100%" height="100%" viewBox="0 0 2481 3508" version="1.1" xmlns="http://www.w3.org/2000/svg" xmlns:xlink="http://www.w3.org/1999/xlink" xml:space="preserve" xmlns:serif="http://www.serif.com/" style="fill-rule:evenodd;clip-rule:evenodd;stroke-linejoin:round;stroke-miterlimit:2;">
    <g id="Seite-1" serif:id="Seite 1" transform="matrix(4.166667,0,0,4.166667,0,0)">
        <rect x="0" y="0" width="595.276" height="841.89" style="fill:none;"/>
        <g id="Ebene-1" serif:id="Ebene 1">
            <g transform="matrix(1,0,0,1,218.3827,472.692)">
                <path d="M0,-103.479L-95.93,-103.479C-95.838,-99.046 -95.755,-95.832 -92.825,-92.654C-89.714,-89.367 -85.96,-88.023 -79.876,-88.023L-9.376,-88.023L-9.378,-16.121L-85.406,-16.121L-77.357,-58.244L-92.076,-60.075C-92.891,-52.397 -97.898,-5.237 -97.923,-4.993C-98.006,-4.045 -97.669,-2.754 -97.082,-1.8C-96.594,-1.007 -95.978,-0.459 -95.348,-0.257C-94.549,0 -93.682,-0.005 -92.767,-0.021L-92.207,-0.026L0,-0.026C2.689,-0.026 4.878,-2.337 4.878,-5.18L4.878,-98.325C4.878,-101.167 2.689,-103.479 0,-103.479" style="fill:rgb(29,29,27);fill-rule:nonzero;"/>
            </g>
            <g transform="matrix(1,0,0,1,307.5605,397.4372)">
                <path d="M0,44.074C-1.314,47.702 -3.345,50.546 -6.089,52.606C-8.836,54.665 -12.349,55.695 -16.624,55.695C-20.78,55.695 -24.242,54.636 -27.01,52.518C-29.775,50.399 -31.845,47.525 -33.216,43.897C-34.592,40.269 -35.277,36.199 -35.277,31.687C-35.277,27.215 -34.601,23.175 -33.246,19.565C-31.893,15.957 -29.814,13.092 -27.01,10.973C-24.206,8.855 -20.646,7.796 -16.328,7.796C-12.172,7.796 -8.737,8.807 -6.032,10.827C-3.324,12.848 -1.314,15.652 0,19.241C1.314,22.831 1.972,26.98 1.972,31.687C1.972,36.317 1.314,40.446 0,44.074M0.796,5.802C-0.328,4.62 -1.518,3.511 -2.855,2.56C-6.936,-0.343 -11.975,-1.795 -17.977,-1.795C-23.862,-1.795 -28.922,-0.334 -33.159,2.588C-37.396,5.511 -40.66,9.503 -42.955,14.564C-45.25,19.624 -46.399,25.331 -46.399,31.687C-46.399,38.042 -45.25,43.749 -42.955,48.811C-40.66,53.872 -37.396,57.883 -33.159,60.843C-28.922,63.806 -23.841,65.287 -17.917,65.287C-11.957,65.287 -6.936,63.806 -2.855,60.843C-1.039,59.526 0.549,57.965 1.972,56.228L1.972,62.27C1.972,62.961 2.532,63.521 3.223,63.521L10.077,63.521C10.768,63.521 11.328,62.961 11.328,62.27L11.328,-19.962C11.328,-20.653 10.768,-21.213 10.077,-21.213L2.047,-21.213C1.356,-21.213 0.796,-20.653 0.796,-19.962L0.796,5.802Z" style="fill:rgb(29,29,27);fill-rule:nonzero;"/>
            </g>
            <g transform="matrix(1,0,0,1,352.0067,459.5804)">
                <path d="M0,-61.349C-2.08,-60.643 -3.944,-59.623 -5.592,-58.29C-7.082,-57.23 -8.426,-55.876 -9.623,-54.229C-10.132,-53.529 -10.578,-52.784 -11.005,-52.027L-11.005,-60.922C-11.005,-61.613 -11.565,-62.173 -12.256,-62.173L-19.111,-62.173C-19.801,-62.173 -20.362,-61.613 -20.362,-60.922L-20.362,0.127C-20.362,0.818 -19.801,1.378 -19.111,1.378L-11.08,1.378C-10.389,1.378 -9.829,0.818 -9.829,0.127L-9.829,-30.515C-9.829,-33.025 -9.614,-35.488 -9.18,-37.9C-8.749,-40.313 -7.974,-43.42 -6.855,-45.499C-5.739,-47.577 -4.159,-49.343 -2.118,-50.795C0.117,-52.442 2.549,-53.403 5.176,-53.678C7.249,-53.894 9.186,-53.843 10.989,-53.523C11.738,-53.39 12.414,-53.998 12.414,-54.759L12.414,-61.144C12.414,-61.742 11.995,-62.274 11.406,-62.375C9.816,-62.647 8.132,-62.727 6.355,-62.615C4.195,-62.477 2.08,-62.055 0,-61.349" style="fill:rgb(29,29,27);fill-rule:nonzero;"/>
            </g>
            <g transform="matrix(1,0,0,1,376.9575,397.4065)">
                <path d="M0,63.552L7.971,63.552C8.661,63.552 9.222,62.992 9.222,62.301L9.222,1.251C9.222,0.561 8.661,0 7.971,0L0,0C-0.691,0 -1.251,0.561 -1.251,1.251L-1.251,62.301C-1.251,62.992 -0.691,63.552 0,63.552" style="fill:rgb(29,29,27);fill-rule:nonzero;"/>
            </g>
            <g transform="matrix(1,0,0,1,479.4446,431.6464)">
                <path d="M0,-26.84L0,-32.988C0,-33.679 -0.56,-34.239 -1.251,-34.239L-18.989,-34.239L-18.989,-50.64C-18.989,-51.331 -19.549,-51.891 -20.24,-51.891L-28.214,-51.891C-28.905,-51.891 -29.465,-51.331 -29.465,-50.64L-29.465,-34.239L-60.739,-34.239L-60.739,-39.359C-60.739,-42.418 -59.973,-44.703 -58.444,-46.214C-56.912,-47.723 -54.599,-48.479 -51.499,-48.479L-45.276,-48.479C-44.585,-48.479 -44.025,-49.039 -44.025,-49.73L-44.025,-55.937C-44.025,-56.627 -44.585,-57.188 -45.276,-57.188L-52.089,-57.188C-53.695,-57.188 -55.392,-57.11 -57.178,-56.953C-58.965,-56.796 -60.718,-56.374 -62.445,-55.687C-64.171,-55 -65.76,-53.853 -67.211,-52.245C-68.468,-50.871 -69.368,-49.371 -69.916,-47.744C-70.466,-46.115 -70.82,-44.448 -70.975,-42.741C-71.134,-41.036 -71.211,-39.359 -71.211,-37.71L-71.211,-34.239L-80.729,-34.239C-81.42,-34.239 -81.98,-33.679 -81.98,-32.988L-81.98,-26.84C-81.98,-26.149 -81.42,-25.589 -80.729,-25.589L-71.211,-25.589L-71.211,28.061C-71.211,28.752 -70.651,29.312 -69.961,29.312L-61.99,29.312C-61.299,29.312 -60.739,28.752 -60.739,28.061L-60.739,-25.589L-29.465,-25.589L-29.465,5.303C-29.465,8.56 -29.417,11.473 -29.318,14.042C-29.22,16.612 -28.543,19.152 -27.287,21.663C-25.797,24.526 -23.618,26.634 -20.755,27.988C-17.891,29.342 -14.627,30.086 -10.959,30.225C-7.627,30.348 -4.256,30.109 -0.844,29.506C-0.245,29.401 0.193,28.869 0.193,28.261L0.193,21.744C0.193,20.986 -0.483,20.414 -1.236,20.511C-4.98,20.996 -8.222,21.046 -10.959,20.662C-14.037,20.231 -16.285,18.76 -17.697,16.249C-18.442,14.916 -18.843,13.327 -18.903,11.482C-18.96,9.639 -18.989,7.422 -18.989,4.834L-18.989,-25.589L-1.251,-25.589C-0.56,-25.589 0,-26.149 0,-26.84" style="fill:rgb(29,29,27);fill-rule:nonzero;"/>
            </g>
            <g transform="matrix(1,0,0,1,218.3827,472.692)">
                <path d="M0,-103.479L-95.93,-103.479C-95.838,-99.046 -95.755,-95.832 -92.825,-92.654C-89.714,-89.367 -85.96,-88.023 -79.876,-88.023L-9.376,-88.023L-9.378,-16.121L-85.406,-16.121L-77.357,-58.244L-92.076,-60.075C-92.891,-52.397 -97.898,-5.237 -97.923,-4.993C-98.006,-4.045 -97.669,-2.754 -97.082,-1.8C-96.594,-1.007 -95.978,-0.459 -95.348,-0.257C-94.549,0 -93.682,-0.005 -92.767,-0.021L-92.207,-0.026L0,-0.026C2.689,-0.026 4.878,-2.337 4.878,-5.18L4.878,-98.325C4.878,-101.167 2.689,-103.479 0,-103.479" style="fill:rgb(29,29,27);fill-rule:nonzero;"/>
            </g>
        </g>
    </g>
</svg>
